<svg width="32" height="32" viewBox="0 0 24 24" fill="none" xmlns="http://www.w3.org/2000/svg">
<path d="M20.5431 6.6149C17.5375 1.98126 11.401 0.603693 6.64213 3.48406C2.00849 6.36444 0.505693 12.6261 3.5113 17.2598L3.76176 17.6355L2.7599 21.3925L6.5169 20.3906L6.8926 20.6411C8.52064 21.5177 10.2739 22.0186 12.0272 22.0186C13.9057 22.0186 15.7842 21.5177 17.4122 20.5158C22.0459 17.5102 23.4234 11.3738 20.5431 6.6149V6.6149ZM17.9132 16.2579C17.4122 17.0093 16.7861 17.5102 15.9094 17.6355C15.4085 17.6355 14.7823 17.8859 12.2776 16.8841C10.1487 15.8822 8.3954 14.2541 7.14307 12.3756C6.39167 11.499 6.01597 10.3719 5.89073 9.24481C5.89073 8.24294 6.26643 7.3663 6.8926 6.74014C7.14307 6.48967 7.39354 6.36444 7.644 6.36444H8.27017C8.52064 6.36444 8.7711 6.36444 8.89634 6.86537C9.14681 7.49154 9.77297 8.99434 9.77297 9.11957C9.89821 9.24481 9.89821 9.49527 9.77297 9.62051C9.89821 9.87097 9.77297 10.1214 9.64774 10.2467C9.52251 10.3719 9.39727 10.6224 9.27204 10.7476C9.02157 10.8728 8.89634 11.1233 9.02157 11.3738C9.52251 12.1252 10.1487 12.8766 10.7748 13.5027C11.5262 14.1289 12.2776 14.6298 13.1543 15.0055C13.4047 15.1308 13.6552 15.1308 13.7804 14.8803C13.9057 14.6298 14.5318 14.0037 14.7823 13.7532C15.0328 13.5027 15.158 13.5027 15.4085 13.628L17.4122 14.6298C17.6627 14.7551 17.9132 14.8803 18.0384 15.0055C18.1636 15.3812 18.1636 15.8822 17.9132 16.2579V16.2579Z" fill="#2c4b69"/>
</svg>
